<svg width="725" height="353" viewBox="0 0 725 353" fill="none" xmlns="http://www.w3.org/2000/svg">
<path d="M146.5 352.5V298.5H3.72529e-07V277.5C3.72529e-07 272.5 2 266.333 6 259L119.5 47.5H166L54 261.5H146.5V123H188.5V261.5H239V298.5H188.5V352.5H146.5ZM492.266 261.5V298.5H234.266V261.5H363.266C381.266 261.5 395.932 255.833 407.266 244.5C418.932 233.167 424.766 218.5 424.766 200.5V97.5C424.766 79.5 418.932 65 407.266 54C395.932 42.6667 381.266 37 363.266 37C345.266 37 330.432 42.6667 318.766 54C307.432 65 301.766 79.5 301.766 97.5V200.5C301.766 214.5 305.099 225.833 311.766 234.5H267.266C262.266 226.167 259.766 214.833 259.766 200.5V97.5C259.766 78.5 264.099 61.6667 272.766 47C281.766 32 294.099 20.5 309.766 12.5C325.432 4.16665 343.266 -9.77516e-06 363.266 -9.77516e-06C383.266 -9.77516e-06 401.099 4.16665 416.766 12.5C432.432 20.5 444.599 32 453.266 47C462.266 61.6667 466.766 78.5 466.766 97.5V200.5C466.766 226.167 459.599 246.5 445.266 261.5H492.266ZM724.965 298.5H689.965V352.5H647.965V298.5H475.965V261.5H505.965L507.465 259L620.965 47.5H667.465L555.465 261.5H647.965V123H689.965V261.5H724.965V298.5Z" fill="#007BFF"/>
</svg>
