<svg width="924" height="276" viewBox="0 0 924 276" fill="none" xmlns="http://www.w3.org/2000/svg">
<path d="M256.396 83.8996H217.645V114.54C217.645 123.345 219.415 129.86 222.954 134.086C226.67 138.137 232.686 140.426 241.002 140.954H247.373V170.009H240.205C221.627 170.009 207.648 165.519 198.27 156.538C188.891 147.381 184.202 134.174 184.202 116.917V2.01611H217.645V54.8442H256.396V83.8996ZM112.273 36.3543V64.0891H164.03V93.1445H144.124C148.901 100.716 151.29 108.993 151.29 117.974C151.29 127.835 148.813 136.728 143.858 144.652C139.081 152.576 132.445 158.827 123.952 163.406C115.458 167.808 105.992 170.009 95.5518 170.009H0V140.954H95.5518C101.922 140.954 107.23 138.665 111.477 134.086C115.724 129.507 117.847 123.696 117.847 116.653C117.847 109.961 115.724 104.414 111.477 100.012C107.23 95.4334 101.922 93.1445 95.5518 93.1445C89.005 93.1445 83.6077 95.4334 79.361 100.012C75.1143 104.414 72.9909 109.961 72.9909 116.653C72.9909 121.936 74.2293 126.602 76.7068 130.652H42.7329C40.6096 126.954 39.5479 120.967 39.5479 112.691C39.5479 105.823 41.4943 99.308 45.3871 93.1445H26.8075V64.0891H78.8301V36.3543H112.273ZM346.558 123.785C335.588 123.785 325.765 121.496 317.096 116.917C308.424 112.163 301.612 105.735 296.659 97.6348C291.704 89.5349 289.226 80.3774 289.226 70.1643C289.226 59.7747 291.614 50.5299 296.394 42.4295C301.346 34.1532 308.159 27.8137 316.83 23.4115C325.5 18.833 335.41 16.5438 346.558 16.5438H400.173V45.5994H346.558C339.833 45.5994 334.172 47.9764 329.57 52.731C324.971 57.3096 322.67 63.1205 322.67 70.1643C322.67 77.2078 324.971 83.1071 329.57 87.8616C334.172 92.4402 339.833 94.7292 346.558 94.7292C353.458 94.7292 359.12 92.4402 363.545 87.8616C368.145 83.1071 370.445 77.2078 370.445 70.1643C370.445 64.8814 369.383 60.1268 367.26 55.9006H400.704C402.827 60.1268 403.89 64.8814 403.89 70.1643C403.89 80.3774 401.411 89.5349 396.456 97.6348C391.679 105.735 384.867 112.163 376.019 116.917C367.348 121.496 357.528 123.785 346.558 123.785ZM246.759 140.954H446.357V170.009H363.014V232.611H329.57V170.009H246.759V140.954ZM445.825 170.009V140.954H661.348V170.009H553.587H445.825ZM907.809 114.54C907.809 123.168 909.137 129.596 911.792 133.822C914.446 138.048 918.516 140.426 924 140.954V170.009H923.203C907.453 170.009 895.335 165.43 886.841 156.274C878.523 147.117 874.367 133.998 874.367 116.917V86.805H846.497V170.009H813.053V3.60096H846.497V57.7498H874.367V2.01611H907.809V114.54ZM689.369 71.7492V42.6938H784.919V93.9368C784.919 118.942 777.396 137.872 762.358 150.727C747.495 163.582 725.465 170.009 696.269 170.009H660.702V140.954H696.269C710.249 140.954 721.394 139.105 729.71 135.407C738.204 131.533 744.134 125.722 747.495 117.974H691.226V91.5596H751.21V71.7492H689.369ZM820.752 187.971V245.553H905.421V274.609H804.296C798.987 274.609 794.832 273.199 791.819 270.381C788.81 267.741 787.308 263.691 787.308 258.233V187.971H820.752Z" fill="#007BFF"/>
<path fill-rule="evenodd" clip-rule="evenodd" d="M503.58 36.7998C497.202 36.7998 492.03 41.9486 492.03 48.2998V117.3C492.03 123.651 497.202 128.8 503.58 128.8H531.3V101.2C531.3 94.8486 536.472 89.6998 542.85 89.6998H559.02C565.398 89.6998 570.57 94.8486 570.57 101.2V128.8H598.29C604.668 128.8 609.84 123.651 609.84 117.3V48.2998C609.84 41.9486 604.668 36.7998 598.29 36.7998H503.58Z" fill="#439DFF"/>
<path d="M550.935 0L605.22 39.1H496.65L550.935 0Z" fill="#439DFF"/>
</svg>
