<svg width="45" height="45" viewBox="0 0 45 45" fill="none" xmlns="http://www.w3.org/2000/svg">
<path d="M33.7499 11.2501C33.3983 10.8986 32.9215 10.7012 32.4243 10.7012C31.9271 10.7012 31.4503 10.8986 31.0987 11.2501L22.4999 19.8489L13.9012 11.2501C13.5495 10.8986 13.0727 10.7012 12.5755 10.7012C12.0783 10.7012 11.6015 10.8986 11.2499 11.2501C10.8984 11.6018 10.7009 12.0786 10.7009 12.5758C10.7009 13.073 10.8984 13.5498 11.2499 13.9014L19.8487 22.5001L11.2499 31.0989C10.8984 31.4505 10.7009 31.9273 10.7009 32.4245C10.7009 32.9217 10.8984 33.3985 11.2499 33.7501C11.6015 34.1017 12.0783 34.2991 12.5755 34.2991C13.0727 34.2991 13.5495 34.1017 13.9012 33.7501L22.4999 25.1514L31.0987 33.7501C31.4503 34.1017 31.9271 34.2991 32.4243 34.2991C32.9215 34.2991 33.3983 34.1017 33.7499 33.7501C34.1014 33.3985 34.2989 32.9217 34.2989 32.4245C34.2989 31.9273 34.1014 31.4505 33.7499 31.0989L25.1512 22.5001L33.7499 13.9014C34.1014 13.5498 34.2989 13.073 34.2989 12.5758C34.2989 12.0786 34.1014 11.6018 33.7499 11.2501V11.2501Z" fill="#007BFF"/>
</svg>
