<svg width="24" height="24" viewBox="0 0 24 24" fill="none" xmlns="http://www.w3.org/2000/svg">
<g clip-path="url(#clip0_91_2733)">
<path d="M23.2709 9.41885C22.3682 7.94057 21.2294 6.6201 19.8999 5.50985L22.6999 2.70985C22.8821 2.52125 22.9829 2.26864 22.9806 2.00645C22.9783 1.74425 22.8732 1.49344 22.6877 1.30803C22.5023 1.12262 22.2515 1.01745 21.9893 1.01517C21.7271 1.0129 21.4745 1.11369 21.2859 1.29585L18.2409 4.34485C16.3533 3.22367 14.1953 2.63931 11.9999 2.65485C5.80893 2.65485 2.28093 6.89285 0.728929 9.41885C0.249457 10.1944 -0.0045166 11.0881 -0.0045166 11.9998C-0.0045166 12.9116 0.249457 13.8053 0.728929 14.5808C1.63169 16.0591 2.77042 17.3796 4.09993 18.4898L1.29993 21.2899C1.20442 21.3821 1.12824 21.4924 1.07583 21.6144C1.02342 21.7364 0.995833 21.8677 0.994679 22.0004C0.993525 22.1332 1.01883 22.2649 1.06911 22.3878C1.11939 22.5107 1.19364 22.6224 1.28753 22.7162C1.38143 22.8101 1.49308 22.8844 1.61598 22.9347C1.73887 22.985 1.87055 23.0103 2.00333 23.0091C2.13611 23.0079 2.26733 22.9804 2.38933 22.9279C2.51134 22.8755 2.62168 22.7994 2.71393 22.7038L5.76593 19.6518C7.6512 20.7728 9.8066 21.3582 11.9999 21.3448C18.1909 21.3448 21.7189 17.1068 23.2709 14.5808C23.7504 13.8053 24.0044 12.9116 24.0044 11.9998C24.0044 11.0881 23.7504 10.1944 23.2709 9.41885V9.41885ZM2.43293 13.5338C2.14806 13.0729 1.99718 12.5417 1.99718 11.9998C1.99718 11.458 2.14806 10.9268 2.43293 10.4658C3.76693 8.29985 6.78193 4.65485 11.9999 4.65485C13.6602 4.64555 15.2972 5.04569 16.7659 5.81985L14.7529 7.83285C13.7929 7.19545 12.6418 6.90985 11.4952 7.02449C10.3485 7.13914 9.2768 7.64699 8.46193 8.46185C7.64707 9.27671 7.13922 10.3484 7.02457 11.4951C6.90993 12.6418 7.19553 13.7928 7.83293 14.7528L5.52293 17.0628C4.29803 16.0726 3.25277 14.8788 2.43293 13.5338V13.5338ZM14.9999 11.9998C14.9999 12.7955 14.6839 13.5586 14.1213 14.1212C13.5586 14.6838 12.7956 14.9998 11.9999 14.9998C11.5544 14.9981 11.1151 14.8956 10.7149 14.6998L14.6999 10.7148C14.8956 11.115 14.9982 11.5544 14.9999 11.9998V11.9998ZM8.99993 11.9998C8.99993 11.2042 9.316 10.4411 9.87861 9.87853C10.4412 9.31592 11.2043 8.99985 11.9999 8.99985C12.4454 9.00157 12.8847 9.10414 13.2849 9.29985L9.29993 13.2848C9.10422 12.8847 9.00165 12.4453 8.99993 11.9998ZM21.5669 13.5338C20.2329 15.6998 17.2179 19.3448 11.9999 19.3448C10.3397 19.3542 8.70269 18.954 7.23393 18.1798L9.24693 16.1668C10.207 16.8042 11.358 17.0899 12.5047 16.9752C13.6514 16.8606 14.7231 16.3527 15.5379 15.5378C16.3528 14.723 16.8606 13.6513 16.9753 12.5046C17.0899 11.3579 16.8043 10.2069 16.1669 9.24685L18.4769 6.93685C19.7018 7.92713 20.7471 9.1209 21.5669 10.4658C21.8518 10.9268 22.0027 11.458 22.0027 11.9998C22.0027 12.5417 21.8518 13.0729 21.5669 13.5338V13.5338Z" fill="black"/>
</g>
<defs>
<clipPath id="clip0_91_2733">
<rect width="24" height="24" fill="white"/>
</clipPath>
</defs>
</svg>
