<svg width="24" height="25" viewBox="0 0 24 25" fill="none" xmlns="http://www.w3.org/2000/svg">
<g clip-path="url(#clip0_52_1741)">
<path d="M19.9499 6.11708L16.4639 2.63108C15.8155 1.97916 15.0442 1.4623 14.1948 1.11042C13.3453 0.758542 12.4344 0.578624 11.5149 0.581079H6.99994C5.67434 0.582667 4.4035 1.10996 3.46616 2.0473C2.52882 2.98464 2.00153 4.25548 1.99994 5.58108V19.5811C2.00153 20.9067 2.52882 22.1775 3.46616 23.1149C4.4035 24.0522 5.67434 24.5795 6.99994 24.5811H16.9999C18.3255 24.5795 19.5964 24.0522 20.5337 23.1149C21.4711 22.1775 21.9984 20.9067 21.9999 19.5811V11.0661C22.0024 10.1466 21.8225 9.23576 21.4706 8.38627C21.1187 7.53678 20.6019 6.7655 19.9499 6.11708ZM18.5359 7.53108C18.841 7.84549 19.1036 8.19849 19.3169 8.58108H14.9999C14.7347 8.58108 14.4804 8.47572 14.2928 8.28819C14.1053 8.10065 13.9999 7.8463 13.9999 7.58108V3.26408C14.3825 3.47746 14.7355 3.74003 15.0499 4.04508L18.5359 7.53108ZM19.9999 19.5811C19.9999 20.3767 19.6839 21.1398 19.1213 21.7024C18.5587 22.265 17.7956 22.5811 16.9999 22.5811H6.99994C6.20429 22.5811 5.44123 22.265 4.87862 21.7024C4.31601 21.1398 3.99994 20.3767 3.99994 19.5811V5.58108C3.99994 4.78543 4.31601 4.02237 4.87862 3.45976C5.44123 2.89715 6.20429 2.58108 6.99994 2.58108H11.5149C11.6799 2.58108 11.8379 2.61308 11.9999 2.62808V7.58108C11.9999 8.37673 12.316 9.13979 12.8786 9.7024C13.4412 10.265 14.2043 10.5811 14.9999 10.5811H19.9529C19.9679 10.7431 19.9999 10.9011 19.9999 11.0661V19.5811ZM16.7239 13.8921C16.9065 14.0842 17.0054 14.3409 16.9989 14.6058C16.9923 14.8708 16.8808 15.1223 16.6889 15.3051L13.0999 18.7191C12.5358 19.2744 11.775 19.5842 10.9834 19.581C10.1919 19.5778 9.43361 19.2619 8.87394 18.7021L7.33394 17.3281C7.13582 17.1514 7.01599 16.9033 7.0008 16.6384C6.99328 16.5071 7.01167 16.3757 7.05493 16.2516C7.0982 16.1275 7.16548 16.0132 7.25294 15.9151C7.3404 15.817 7.44633 15.7371 7.56467 15.6799C7.68301 15.6228 7.81145 15.5895 7.94266 15.5819C8.20765 15.5667 8.46782 15.6574 8.66594 15.8341L10.2509 17.2481C10.3417 17.35 10.4523 17.4322 10.576 17.4898C10.6997 17.5473 10.8339 17.5789 10.9703 17.5827C11.1067 17.5864 11.2424 17.5622 11.3691 17.5116C11.4958 17.4609 11.6107 17.3848 11.7069 17.2881L15.3069 13.8571C15.4021 13.7661 15.5144 13.6947 15.6372 13.6472C15.76 13.5997 15.891 13.5769 16.0227 13.5802C16.1544 13.5834 16.2841 13.6126 16.4044 13.6662C16.5248 13.7197 16.6334 13.7965 16.7239 13.8921Z" fill="black"/>
</g>
<defs>
<clipPath id="clip0_52_1741">
<rect width="24" height="24" fill="white" transform="translate(0 0.580566)"/>
</clipPath>
</defs>
</svg>
