<svg width="25" height="25" viewBox="0 0 25 25" fill="none" xmlns="http://www.w3.org/2000/svg">
<path d="M12.1012 2.01709C10.7769 2.01709 9.46555 2.27793 8.24206 2.78471C7.01858 3.2915 5.90689 4.0343 4.97047 4.97072C3.0793 6.86189 2.01685 9.42688 2.01685 12.1014C2.01685 16.5587 4.91105 20.3403 8.91452 21.6815C9.41874 21.7622 9.58008 21.4496 9.58008 21.1773C9.58008 20.9454 9.58008 20.31 9.58008 19.473C6.78673 20.0781 6.19175 18.1217 6.19175 18.1217C5.72787 16.952 5.07239 16.6394 5.07239 16.6394C4.15472 16.0141 5.14298 16.0343 5.14298 16.0343C6.15142 16.1049 6.68588 17.073 6.68588 17.073C7.56322 18.6058 9.04562 18.152 9.62042 17.91C9.71118 17.2545 9.97337 16.8108 10.2557 16.5587C8.01701 16.3066 5.66737 15.4393 5.66737 11.5972C5.66737 10.4778 6.05057 9.58033 6.70605 8.86434C6.60521 8.61223 6.25226 7.56346 6.8069 6.20208C6.8069 6.20208 7.65398 5.92981 9.58008 7.23068C10.3767 7.00883 11.244 6.8979 12.1012 6.8979C12.9583 6.8979 13.8256 7.00883 14.6222 7.23068C16.5483 5.92981 17.3954 6.20208 17.3954 6.20208C17.9501 7.56346 17.5971 8.61223 17.4963 8.86434C18.1518 9.58033 18.535 10.4778 18.535 11.5972C18.535 15.4494 16.1752 16.2965 13.9264 16.5486C14.2895 16.8612 14.6222 17.4763 14.6222 18.4142C14.6222 19.7655 14.6222 20.8546 14.6222 21.1773C14.6222 21.4496 14.7836 21.7723 15.2979 21.6815C19.3014 20.3302 22.1855 16.5587 22.1855 12.1014C22.1855 10.7771 21.9246 9.46579 21.4179 8.24231C20.9111 7.01882 20.1683 5.90713 19.2319 4.97072C18.2954 4.0343 17.1838 3.2915 15.9603 2.78471C14.7368 2.27793 13.4255 2.01709 12.1012 2.01709Z" fill="#A3A3A3"/>
</svg>
