<svg width="18" height="18" viewBox="0 0 18 18" fill="none" xmlns="http://www.w3.org/2000/svg">
<path d="M9 1.6875C13.0386 1.6875 16.3125 4.96142 16.3125 9C16.3125 13.0386 13.0386 16.3125 9 16.3125C4.96142 16.3125 1.6875 13.0386 1.6875 9C1.6875 4.96142 4.96142 1.6875 9 1.6875ZM9 2.8125C5.58274 2.8125 2.8125 5.58274 2.8125 9C2.8125 12.4173 5.58274 15.1875 9 15.1875C12.4173 15.1875 15.1875 12.4173 15.1875 9C15.1875 5.58274 12.4173 2.8125 9 2.8125ZM9 7.6875C9.31066 7.6875 9.5625 7.93934 9.5625 8.25V12C9.5625 12.3107 9.31066 12.5625 9 12.5625C8.68934 12.5625 8.4375 12.3107 8.4375 12V8.25C8.4375 7.93934 8.68934 7.6875 9 7.6875ZM9 5.25C9.41421 5.25 9.75 5.58579 9.75 6C9.75 6.41421 9.41421 6.75 9 6.75C8.58579 6.75 8.25 6.41421 8.25 6C8.25 5.58579 8.58579 5.25 9 5.25Z" fill="#3B3B3B"/>
</svg>
