<svg width="29" height="29" viewBox="0 0 29 29" fill="none" xmlns="http://www.w3.org/2000/svg">
<path d="M28.1686 26.6218L20.6166 19.0698C22.4314 16.8911 23.3363 14.0966 23.1432 11.2677C22.9501 8.43873 21.6738 5.79315 19.5798 3.88128C17.4858 1.9694 14.7353 0.938435 11.9005 1.00285C9.06575 1.06726 6.36493 2.22209 4.35991 4.2271C2.3549 6.23211 1.20007 8.93293 1.13566 11.7677C1.07125 14.6025 2.10221 17.353 4.01409 19.447C5.92596 21.541 8.57154 22.8173 11.4005 23.0104C14.2294 23.2035 17.0239 22.2986 19.2026 20.4838L26.7546 28.0358L28.1686 26.6218ZM3.16857 12.0358C3.16857 10.2557 3.69641 8.51567 4.68535 7.03563C5.67428 5.55559 7.07989 4.40203 8.72442 3.72084C10.369 3.03966 12.1786 2.86143 13.9244 3.20869C15.6702 3.55596 17.2739 4.41313 18.5325 5.6718C19.7912 6.93047 20.6484 8.53412 20.9956 10.2799C21.3429 12.0258 21.1647 13.8354 20.4835 15.4799C19.8023 17.1244 18.6487 18.5301 17.1687 19.519C15.6887 20.5079 13.9486 21.0358 12.1686 21.0358C9.78244 21.0331 7.49479 20.0841 5.80754 18.3968C4.12028 16.7095 3.17122 14.4219 3.16857 12.0358Z" fill="#979797" stroke="#979797"/>
</svg>
