<svg width="24" height="25" viewBox="0 0 24 25" fill="none" xmlns="http://www.w3.org/2000/svg">
<g clip-path="url(#clip0_52_1756)">
<path d="M12 12.5806C13.1867 12.5806 14.3467 12.2287 15.3334 11.5694C16.3201 10.9101 17.0892 9.97303 17.5433 8.87667C17.9974 7.78031 18.1162 6.57391 17.8847 5.41003C17.6532 4.24614 17.0818 3.17704 16.2426 2.33793C15.4035 1.49881 14.3344 0.927369 13.1705 0.695857C12.0067 0.464346 10.8003 0.583166 9.7039 1.03729C8.60754 1.49142 7.67047 2.26045 7.01118 3.24715C6.35189 4.23384 6 5.39388 6 6.58057C6.00159 8.17138 6.63424 9.69658 7.75911 10.8215C8.88399 11.9463 10.4092 12.579 12 12.5806ZM12 2.58057C12.7911 2.58057 13.5645 2.81517 14.2223 3.25469C14.8801 3.69422 15.3928 4.31893 15.6955 5.04984C15.9983 5.78074 16.0775 6.58501 15.9231 7.36093C15.7688 8.13685 15.3878 8.84959 14.8284 9.409C14.269 9.96841 13.5563 10.3494 12.7804 10.5037C12.0044 10.6581 11.2002 10.5788 10.4693 10.2761C9.73836 9.97334 9.11365 9.46065 8.67412 8.80285C8.2346 8.14505 8 7.37169 8 6.58057C8 5.5197 8.42143 4.50229 9.17157 3.75214C9.92172 3.002 10.9391 2.58057 12 2.58057Z" fill="black"/>
<path d="M12 14.5811C9.61386 14.5837 7.32622 15.5328 5.63896 17.22C3.95171 18.9073 3.00265 21.1949 3 23.5811C3 23.8463 3.10536 24.1006 3.29289 24.2882C3.48043 24.4757 3.73478 24.5811 4 24.5811C4.26522 24.5811 4.51957 24.4757 4.70711 24.2882C4.89464 24.1006 5 23.8463 5 23.5811C5 21.7245 5.7375 19.9441 7.05025 18.6313C8.36301 17.3186 10.1435 16.5811 12 16.5811C13.8565 16.5811 15.637 17.3186 16.9497 18.6313C18.2625 19.9441 19 21.7245 19 23.5811C19 23.8463 19.1054 24.1006 19.2929 24.2882C19.4804 24.4757 19.7348 24.5811 20 24.5811C20.2652 24.5811 20.5196 24.4757 20.7071 24.2882C20.8946 24.1006 21 23.8463 21 23.5811C20.9974 21.1949 20.0483 18.9073 18.361 17.22C16.6738 15.5328 14.3861 14.5837 12 14.5811Z" fill="black"/>
</g>
<defs>
<clipPath id="clip0_52_1756">
<rect width="24" height="24" fill="white" transform="translate(0 0.580566)"/>
</clipPath>
</defs>
</svg>
